<svg width="112" height="35" viewBox="0 0 112 35" fill="none" xmlns="http://www.w3.org/2000/svg">
<path d="M12.2435 22.0121C11.9647 21.7363 11.1165 20.8943 11.1165 17.0623C11.1165 13.2304 11.9647 12.3891 12.2435 12.1133C12.5223 11.8375 13.3705 10.9955 17.2341 10.9955C21.0977 10.9955 21.9422 11.8361 22.224 12.1133C22.5057 12.3906 23.351 13.2311 23.351 17.0623C23.351 20.8936 22.5028 21.7363 22.224 22.0121C21.9451 22.2879 21.097 23.1299 17.2341 23.1299C13.3712 23.1299 12.5208 22.2886 12.2435 22.0121ZM9.16187 9.08684C7.82373 10.414 6.95935 13.5667 6.95935 17.1185C6.95935 20.6703 7.82373 23.8223 9.16187 25.1487C10.5 26.4752 13.6787 27.3376 17.2591 27.3376C20.8395 27.3376 24.0189 26.4803 25.3571 25.1487C26.6945 23.8223 27.5596 20.6696 27.5596 17.1185C27.5596 13.5674 26.6945 10.414 25.3571 9.08684C24.0197 7.75966 20.8402 6.90381 17.2591 6.90381C13.678 6.90381 10.5 7.76184 9.16187 9.0883" fill="#F15F22"/>
<path d="M9.16187 9.08684C7.82373 10.414 6.95935 13.5667 6.95935 17.1185C6.95935 20.6703 7.82373 23.8223 9.16187 25.1487C10.5 26.4752 13.6787 27.3376 17.2591 27.3376C20.8395 27.3376 24.0189 26.4796 25.3571 25.1487C26.6952 23.8223 27.5596 20.6696 27.5596 17.1185C27.5596 13.5674 26.6952 10.414 25.3571 9.08684C24.0189 7.75966 20.8402 6.90381 17.2591 6.90381C13.678 6.90381 10.5 7.76184 9.16187 9.0883V9.08684ZM12.2435 22.0135C11.9647 21.7377 11.1165 20.8958 11.1165 17.0638C11.1165 13.2318 11.9647 12.3906 12.2435 12.1148C12.5223 11.839 13.3705 10.997 17.2333 10.997C21.0962 10.997 21.9451 11.8382 22.224 12.1148C22.5028 12.3913 23.351 13.2325 23.351 17.0638C23.351 20.895 22.5035 21.7377 22.224 22.0135C21.9444 22.2893 21.097 23.1313 17.2333 23.1313C13.3697 23.1313 12.5252 22.2901 12.2435 22.0135Z" fill="#F15F22"/>
<path d="M7.39396 26.9726C5.50556 25.0997 4.37782 21.4363 4.37782 17.1724C4.37782 12.9085 5.50409 9.24503 7.39396 7.37355C9.28382 5.50207 12.9753 4.3821 17.2744 4.3821C21.5735 4.3821 25.2664 5.49988 27.1548 7.37355C29.0432 9.24722 30.171 12.9085 30.171 17.1724C30.171 21.4363 29.044 25.0997 27.1548 26.9726C25.2657 28.8456 21.5713 29.9597 17.2744 29.9597C12.9775 29.9597 9.28162 28.8419 7.39396 26.9683V26.9726ZM0.00147048 17.1184C0.00147048 26.4933 7.60067 34.1091 17.0228 34.2353C26.6774 34.3652 34.651 26.4575 34.5186 16.8812C34.3899 7.53553 26.7127 0 17.2597 0C7.72794 0 0 7.66102 0 17.1184" fill="#F15F22"/>
<path d="M19.6214 13.8037H14.8964C14.3556 13.8037 13.9172 14.2385 13.9172 14.7748V19.4619C13.9172 19.9983 14.3556 20.433 14.8964 20.433H19.6214C20.1622 20.433 20.6006 19.9983 20.6006 19.4619V14.7748C20.6006 14.2385 20.1622 13.8037 19.6214 13.8037Z" fill="#F15F22"/>
<path d="M46.3318 12.0615H42.5675V22.5622H46.3318V12.0615Z" fill="white"/>
<path d="M48.3643 22.562V12.0613H51.3591L51.8291 13.2068C52.706 12.2738 53.861 11.8071 55.294 11.8066C56.5564 11.8066 57.5613 12.189 58.3528 12.974C59.1444 13.7379 59.5299 14.7142 59.5299 15.9232V22.5627H55.7648V16.5346C55.7648 15.5795 55.0586 14.8565 54.0964 14.8565C52.9194 14.8565 52.1286 15.6838 52.1286 16.9351V22.5569L48.3643 22.562Z" fill="white"/>
<path d="M60.3829 14.8826V12.0611H62.158V11.0849C62.158 9.96055 62.5259 9.06968 63.249 8.39113C63.9979 7.71015 64.9604 7.36966 66.1364 7.36966C67.0245 7.36745 67.9091 7.48153 68.7671 7.70893L68.297 10.4669C67.8877 10.39 67.4725 10.3476 67.056 10.34C66.3718 10.34 65.9223 10.7639 65.9223 11.4643V12.0582H68.1043V14.8797H65.9223V22.5618H62.158V14.8826H60.3829Z" fill="white"/>
<path d="M74.6295 19.9317C75.9124 19.9317 76.832 18.8497 76.832 17.3226C76.832 15.7736 75.9124 14.6916 74.6295 14.6916C73.3465 14.6916 72.4475 15.7736 72.4475 17.3226C72.4475 18.8497 73.3458 19.9317 74.6295 19.9317ZM70.2892 13.3556C71.4228 12.3159 72.8558 11.8066 74.6295 11.8066C76.4031 11.8066 77.8589 12.3174 78.9698 13.3556C80.1034 14.3734 80.6617 15.6904 80.6617 17.3226C80.6617 18.9343 80.1056 20.2498 78.9698 21.2888C77.8575 22.3103 76.4031 22.8166 74.6295 22.8166C72.8558 22.8166 71.4213 22.3059 70.2892 21.2888C69.1555 20.2498 68.5972 18.9343 68.5972 17.3226C68.5972 15.7108 69.1533 14.3946 70.2892 13.3556Z" fill="white"/>
<path d="M85.4704 17.8735C85.4704 19.0409 86.2407 19.8887 87.3743 19.8887C88.5933 19.8887 89.4701 18.8286 89.4701 17.3226C89.4701 15.7948 88.5933 14.7339 87.3743 14.7339C86.2407 14.7339 85.4704 15.5825 85.4704 16.771V17.8735ZM81.7701 22.562V7.62744H85.5344V12.8041C86.3327 12.1463 87.3414 11.7927 88.3792 11.8067C89.8122 11.8067 90.9885 12.3174 91.9103 13.3557C92.8298 14.3735 93.2999 15.6905 93.2999 17.3226C93.2999 18.9344 92.8298 20.2499 91.9103 21.2889C90.9897 22.3074 89.8127 22.8167 88.3792 22.8167C87.0962 22.8167 86.0479 22.4132 85.235 21.5865L84.7642 22.562H81.7701Z" fill="white"/>
<path d="M94.6715 12.0615H98.4366V22.5622H94.6715V12.0615ZM96.5541 7.16064C97.837 7.16064 98.7146 8.05224 98.7146 9.30354C98.7146 10.5125 97.837 11.4253 96.5541 11.4253C95.3351 11.4253 94.4155 10.5125 94.4155 9.30354C94.4155 8.05224 95.3351 7.16064 96.5541 7.16064Z" fill="white"/>
<path d="M104.169 17.8734C104.169 19.0408 104.939 19.8887 106.073 19.8887C107.292 19.8887 108.169 18.8285 108.169 17.3226C108.169 15.7948 107.292 14.7339 106.073 14.7339C104.939 14.7339 104.169 15.5824 104.169 16.771V17.8734ZM100.469 26.974V12.0613H103.464L103.934 13.0368C104.747 12.2101 105.795 11.8066 107.079 11.8066C108.512 11.8066 109.688 12.3174 110.61 13.3556C111.529 14.3734 112 15.6904 112 17.3226C112 18.9343 111.529 20.2498 110.61 21.2888C109.69 22.3074 108.513 22.8166 107.079 22.8166C106.042 22.8235 105.036 22.4709 104.234 21.82V26.974H100.469Z" fill="white"/>
<path d="M46.3318 7.20947H42.5675V10.9429H46.3318V7.20947Z" fill="white"/>
</svg>
