<svg width="64" height="65" viewBox="0 0 64 65" fill="none" xmlns="http://www.w3.org/2000/svg">
<path d="M8.75591 19.5645C13.9953 17.8314 19.7551 19.6621 23.0332 24.1016L23.0293 24.1055C27.5582 20.6046 33.8803 20.6046 38.4092 24.1055L38.4063 24.1025C40.8029 20.8504 44.5998 18.9273 48.6397 18.9199C52.0345 18.9199 55.291 20.2685 57.6915 22.6689C60.0918 25.0693 61.4404 28.3251 61.4405 31.7197V38.1201C61.4404 40.2409 59.7204 41.96 57.5997 41.96H56.3204V53.4805C56.3201 55.6009 54.601 57.3201 52.4805 57.3203H44.7999C42.6793 57.3202 40.9602 55.601 40.96 53.4805V46.8447C40.55 46.9961 40.1167 47.0759 39.6797 47.0801H38.4004V61.1602C38.4004 63.2809 36.6804 65 34.5596 65H26.8799C24.7593 64.9999 23.0401 63.2808 23.0401 61.1602V47.0801H21.7598C21.323 47.0759 20.8903 46.996 20.4805 46.8447V53.4805C20.4803 55.601 18.7603 57.3203 16.6397 57.3203H8.96001C6.83942 57.3203 5.12039 55.601 5.12016 53.4805V41.96H3.83989C1.71924 41.9599 8.53053e-05 40.2408 4.57764e-05 38.1201V31.7197C-0.0154497 26.2014 3.51677 21.2975 8.75591 19.5645ZM30.7198 24.04C25.0645 24.0402 20.4805 28.625 20.4805 34.2803V43.2402C20.4815 43.9466 21.0534 44.5186 21.7598 44.5195H23.0401C24.4539 44.5195 25.5997 45.6662 25.5997 47.0801V61.1602C25.6006 61.8666 26.1735 62.4395 26.8799 62.4404H34.5596C35.2661 62.4396 35.839 61.8667 35.8399 61.1602V47.0801C35.8399 45.6662 36.9866 44.5195 38.4004 44.5195H39.6797C40.3862 44.5187 40.959 43.9467 40.96 43.2402V34.2803C40.96 28.6249 36.3752 24.04 30.7198 24.04ZM21.1612 25.8447C18.6016 22.1848 13.9628 20.6099 9.70415 21.9551C5.44558 23.3003 2.55249 27.2538 2.55962 31.7197V38.1201C2.56062 38.8266 3.13346 39.3993 3.83989 39.4004H5.12016C6.53392 39.4004 7.67966 40.5462 7.67973 41.96V53.4805C7.68093 54.1868 8.25364 54.7587 8.96001 54.7598H16.6397C17.3461 54.7588 17.9188 54.1868 17.92 53.4805V34.2803C17.9293 31.1661 19.083 28.164 21.1612 25.8447ZM51.7364 21.9551C47.4777 20.6099 42.8379 22.1848 40.2784 25.8447C42.3567 28.164 43.5102 31.166 43.5196 34.2803V53.4805C43.5208 54.1867 44.0935 54.7587 44.7999 54.7598H52.4805C53.1867 54.7585 53.7586 54.1866 53.7598 53.4805V41.96C53.7599 40.5462 54.9066 39.4004 56.3204 39.4004H57.5997C58.3062 39.3994 58.8789 38.8266 58.8799 38.1201V31.7197C58.8871 27.2539 55.9947 23.3004 51.7364 21.9551ZM30.7198 3.55957C34.9613 3.55957 38.4004 6.99869 38.4004 11.2402C38.4003 15.4817 34.9612 18.9199 30.7198 18.9199C26.4784 18.9198 23.0402 15.4816 23.0401 11.2402C23.0401 6.99879 26.4784 3.55974 30.7198 3.55957ZM12.7999 1C17.0413 1 20.4803 4.43828 20.4805 8.67969C20.4805 12.9212 17.0414 16.3604 12.7999 16.3604C8.55841 16.3602 5.12016 12.9212 5.12016 8.67969C5.12033 4.43836 8.55852 1.00013 12.7999 1ZM30.7198 6.12012C27.8936 6.12352 25.6029 8.41398 25.5997 11.2402C25.5998 14.0677 27.8923 16.3602 30.7198 16.3604C33.5474 16.3604 35.8398 14.0678 35.8399 11.2402C35.8399 8.41254 33.5475 6.12012 30.7198 6.12012ZM48.6397 1C52.8811 1 56.3202 4.43828 56.3204 8.67969C56.3204 12.9212 52.8812 16.3604 48.6397 16.3604C44.3983 16.3601 40.96 12.9211 40.96 8.67969C40.9602 4.43841 44.3984 1.00021 48.6397 1ZM12.7999 3.55957C9.97371 3.56293 7.68315 5.85356 7.67973 8.67969C7.67973 11.5073 9.97225 13.7997 12.7999 13.7998C15.6275 13.7998 17.92 11.5074 17.92 8.67969C17.9198 5.85214 15.6274 3.55957 12.7999 3.55957ZM48.6397 3.55957C45.8136 3.56302 43.524 5.85361 43.5206 8.67969C43.5206 11.5073 45.8122 13.7996 48.6397 13.7998C51.4674 13.7998 53.7598 11.5074 53.7598 8.67969C53.7596 5.85214 51.4673 3.55957 48.6397 3.55957Z" fill="#30CEC2" fill-opacity="0.4"/>
</svg>
